# xmcd CD database file
# Copyright (C) 1996 Ti Kan
#
# Track frame offsets:
#	182
#	20555
#	25062
#	26532
#	31592
#	35742
#	41842
#	48875
#	59357
#	65600
#	81602
#	93307
#	101397
#	106552
#	112055
#	115622
#	120157
#	126640
#	130275
#	137537
#	146597
#	157027
#	171837
#	178402
#	184410
#	192162
#	199665
#	206752
#	215637
#	230302
# Disc length: 3147 seconds
#
# Revision: 1
# Processed by: cddbd v1.4PL0 Copyright (c) Steve Scherf et al.
# Submitted via: CDCOPY 4.900
#
DISCID=b20c491e
DTITLE=Tahiti - Bora-Bora - Le Juillet Polynésien
DYEAR=1900
DGENRE=
TTITLE0=Otéa
TTITLE1=Uté
TTITLE2=Otéa
TTITLE3=Miméné Tama'I
TTITLE4=Apa Mai Ia'U
TTITLE5=Otéa
TTITLE6=Tamahiné Kivoto Oé
TTITLE7=Té Réka Té Réka e
TTITLE8=Aéré Iti Réré
TTITLE9=Otéa
TTITLE10=To Rima Rari é
TTITLE11=Otéa
TTITLE12=Aparima
TTITLE13=Ua Hito o Té Ra
TTITLE14=Otéa
TTITLE15=Tahiti Héré
TTITLE16=Otéa
TTITLE17=Bora, Bora
TTITLE18=Ia Orana
TTITLE19=Pik Oé Moé Ana
TTITLE20=Marama é Turama
TTITLE21=Himéné Tarava
TTITLE22=Uté Hiro
TTITLE23=Uté
TTITLE24=Moana Poiri
TTITLE25=Vahiné Hapa'O Oré Hiu
TTITLE26=Chant Paumotou
TTITLE27=Chant de l'Archipel Tuamotou
TTITLE28=Séléction de Pao'A
TTITLE29=Chant d'Adieu
EXTD=
EXTT0=
EXTT1=
EXTT2=
EXTT3=
EXTT4=
EXTT5=
EXTT6=
EXTT7=
EXTT8=
EXTT9=
EXTT10=
EXTT11=
EXTT12=
EXTT13=
EXTT14=
EXTT15=
EXTT16=
EXTT17=
EXTT18=
EXTT19=
EXTT20=
EXTT21=
EXTT22=
EXTT23=
EXTT24=
EXTT25=
EXTT26=
EXTT27=
EXTT28=
EXTT29=
PLAYORDER=
